<?xml version="1.0" encoding="UTF-8"?>
<!DOCTYPE svg PUBLIC "-//W3C//DTD SVG 1.1//EN" "http://www.w3.org/Graphics/SVG/1.1/DTD/svg11.dtd">
<!-- Creator: CorelDRAW X6 -->
<svg xmlns="http://www.w3.org/2000/svg" xml:space="preserve" width="2.72222in" height="0.47222in" version="1.1" style="shape-rendering:geometricPrecision; text-rendering:geometricPrecision; image-rendering:optimizeQuality; fill-rule:evenodd; clip-rule:evenodd"
viewBox="0 0 2722 472"
 xmlns:xlink="http://www.w3.org/1999/xlink">
 <defs>
  <style type="text/css">
   <![CDATA[
    .fil0 {fill:black;fill-rule:nonzero}
   ]]>
  </style>
 </defs>
 <g id="__x0023_Layer_x0020_1">
  <metadata id="CorelCorpID_0Corel-Layer"/>
  <g id="_285157952">
   <path class="fil0" d="M118 25c14,0 27,2 39,6 12,4 21,8 27,12l8 6 14 -19 2 0 8 93 -3 0c-3,-23 -13,-45 -29,-65 -16,-20 -38,-30 -66,-30 -18,0 -33,6 -44,17 -11,11 -17,25 -17,41 0,17 6,30 18,42 12,11 26,21 43,28 17,7 33,15 50,23 17,8 31,20 43,34 12,15 18,33 18,55 0,30 -11,54 -33,71 -22,17 -49,25 -81,25 -16,0 -31,-2 -45,-7 -14,-4 -25,-9 -31,-13l-9 -6 -15 19 -2 0 -5 -101 3 0c3,30 13,54 31,75 18,20 42,31 74,31 24,0 43,-6 56,-19 13,-13 20,-30 20,-51 0,-15 -4,-29 -12,-40 -8,-11 -19,-20 -31,-26 -12,-6 -26,-13 -40,-20 -14,-7 -28,-14 -40,-20 -12,-7 -23,-16 -31,-29 -8,-12 -12,-27 -12,-44 0,-25 9,-46 27,-62 18,-16 40,-24 67,-24z"/>
   <path class="fil0" d="M363 121c30,0 54,11 71,33 18,22 27,51 27,87 0,35 -10,64 -31,88 -21,23 -47,35 -77,35 -25,0 -45,-11 -62,-33l0 93c0,20 2,33 6,38 4,5 14,8 31,9l0 3 -113 0 0 -3c16,-1 25,-5 29,-10 4,-5 6,-17 6,-36l0 -242c0,-16 -2,-27 -7,-32 -4,-5 -14,-7 -29,-7l0 -3c9,0 20,-2 33,-5 13,-3 23,-6 32,-9l12 -4 0 40c18,-27 42,-40 72,-40zm-16 238l0 0c25,0 43,-10 53,-31 10,-20 15,-50 15,-89 0,-36 -4,-64 -13,-84 -9,-20 -24,-30 -46,-30 -18,0 -34,7 -46,20 -12,13 -18,34 -18,62l0 79c0,24 5,42 15,54 10,12 24,18 41,18z"/>
   <path class="fil0" d="M684 331l2 0c0,1 -1,2 -1,3 0,1 -2,4 -4,7 -2,4 -4,7 -7,9 -3,3 -6,5 -11,7 -5,2 -10,3 -16,3 -25,0 -39,-15 -41,-45 -7,15 -17,26 -31,34 -14,8 -29,12 -46,12 -22,0 -39,-5 -52,-14 -12,-9 -18,-23 -18,-39 0,-14 6,-25 17,-33 11,-8 29,-15 53,-22l75 -22 0 -37c0,-25 -4,-43 -11,-54 -7,-11 -20,-17 -39,-17 -25,0 -40,13 -44,40 -1,6 -2,10 -2,13 -1,3 -2,6 -3,10 -2,4 -4,7 -6,8 -3,2 -6,2 -10,2 -6,0 -10,-2 -13,-6 -3,-4 -5,-9 -5,-14 0,-14 8,-27 23,-39 15,-12 39,-18 71,-18 55,0 83,22 83,66l0 133c0,10 1,17 4,20 3,4 7,6 14,6 5,0 9,-1 12,-4 3,-3 6,-5 7,-8l1 -4zm-138 22l0 0c17,0 31,-6 42,-18 11,-12 17,-27 17,-46l0 -54 -56 17c-31,9 -46,28 -46,56 0,30 14,44 43,44z"/>
   <path class="fil0" d="M746 120l0 64c5,-18 13,-33 24,-45 11,-12 24,-18 39,-18 8,0 15,2 21,6 6,4 9,10 9,17 0,6 -2,11 -5,15 -3,4 -7,6 -13,6 -7,0 -14,-5 -20,-14 -6,-9 -12,-14 -19,-14 -8,0 -16,7 -23,22 -7,14 -10,35 -10,62l0 84c0,21 2,34 6,40 4,5 14,9 31,9l0 2 -113 0 0 -2c16,-1 26,-5 29,-10 4,-6 5,-18 5,-38l0 -123c0,-17 -2,-27 -6,-32 -4,-5 -14,-7 -29,-7l0 -3c9,0 20,-2 32,-5 12,-3 22,-6 30,-9l12 -5z"/>
   <path class="fil0" d="M897 71l0 57 65 0 0 3 -65 0 0 174c0,30 11,44 32,44 7,0 15,-2 21,-5 7,-3 11,-7 14,-10l4 -5 1 2c-2,2 -4,5 -7,9 -3,3 -10,8 -20,14 -11,6 -22,9 -33,9 -36,0 -54,-18 -54,-55l0 -177 -25 0 0 -2c13,-3 25,-10 38,-21 13,-11 21,-24 26,-37l2 0z"/>
   <path class="fil0" d="M1189 331l2 0c0,1 -1,2 -1,3 0,1 -2,4 -4,7 -2,4 -4,7 -7,9 -3,3 -6,5 -11,7 -5,2 -10,3 -16,3 -25,0 -39,-15 -41,-45 -7,15 -17,26 -31,34 -14,8 -29,12 -46,12 -22,0 -39,-5 -52,-14 -12,-9 -18,-23 -18,-39 0,-14 6,-25 17,-33 11,-8 29,-15 53,-22l75 -22 0 -37c0,-25 -4,-43 -11,-54 -7,-11 -20,-17 -39,-17 -25,0 -40,13 -44,40 -1,6 -2,10 -2,13 -1,3 -2,6 -3,10 -2,4 -4,7 -6,8 -3,2 -6,2 -10,2 -6,0 -10,-2 -13,-6 -3,-4 -5,-9 -5,-14 0,-14 8,-27 23,-39 15,-12 39,-18 71,-18 55,0 83,22 83,66l0 133c0,10 1,17 4,20 3,4 7,6 14,6 5,0 9,-1 12,-4 3,-3 6,-5 7,-8l1 -4zm-138 22l0 0c17,0 31,-6 42,-18 11,-12 17,-27 17,-46l0 -54 -56 17c-31,9 -46,28 -46,56 0,30 14,44 43,44z"/>
   <path class="fil0" d="M1390 208l-35 0 0 96c0,21 2,34 6,40 4,6 14,8 32,8l0 3 -125 0 0 -2c20,-1 32,-4 35,-8 4,-5 6,-18 6,-40l0 -221c0,-22 -2,-36 -6,-40 -4,-5 -16,-7 -35,-8l0 -2 123 0c40,0 72,7 94,22 23,15 34,36 34,63 0,28 -12,50 -36,66 -24,16 -55,25 -91,25zm0 -173l0 0 -35 0 0 170 33 0c26,0 46,-8 59,-24 13,-16 20,-37 20,-63 0,-55 -26,-83 -77,-83z"/>
   <path class="fil0" d="M1573 0l0 304c0,20 2,33 5,38 4,6 13,9 29,10l0 2 -107 0 0 -2c15,-1 24,-4 27,-9 3,-5 5,-18 5,-39l0 -242c0,-17 -2,-28 -6,-33 -4,-5 -14,-8 -29,-8l0 -2c10,0 21,-2 33,-5 12,-3 23,-6 30,-10l12 -4z"/>
   <path class="fil0" d="M1817 331l2 0c0,1 -1,2 -1,3 0,1 -2,4 -4,7 -2,4 -4,7 -7,9 -3,3 -6,5 -11,7 -5,2 -10,3 -16,3 -25,0 -39,-15 -41,-45 -7,15 -17,26 -31,34 -14,8 -29,12 -46,12 -22,0 -39,-5 -52,-14 -12,-9 -18,-23 -18,-39 0,-14 6,-25 17,-33 11,-8 29,-15 53,-22l75 -22 0 -37c0,-25 -4,-43 -11,-54 -7,-11 -20,-17 -39,-17 -25,0 -40,13 -44,40 -1,6 -2,10 -2,13 -1,3 -2,6 -3,10 -2,4 -4,7 -6,8 -3,2 -6,2 -10,2 -6,0 -10,-2 -13,-6 -3,-4 -5,-9 -5,-14 0,-14 8,-27 23,-39 15,-12 39,-18 71,-18 55,0 83,22 83,66l0 133c0,10 1,17 4,20 3,4 7,6 14,6 5,0 9,-1 12,-4 3,-3 6,-5 7,-8l1 -4zm-138 22l0 0c17,0 31,-6 42,-18 11,-12 17,-27 17,-46l0 -54 -56 17c-31,9 -46,28 -46,56 0,30 14,44 43,44z"/>
   <path class="fil0" d="M1925 356c19,0 35,-5 47,-14 12,-9 20,-20 25,-32l3 0c-5,13 -15,25 -28,36 -14,11 -32,16 -55,16 -34,0 -62,-11 -82,-32 -21,-22 -31,-50 -31,-86 0,-35 10,-64 31,-88 21,-24 47,-36 77,-36 27,0 49,8 65,25 16,16 24,40 25,70l-151 0c-1,12 -1,22 -1,30 0,75 25,112 75,112zm-13 -233l0 0c-36,0 -56,29 -61,88l103 0c3,-8 4,-18 4,-29 0,-39 -16,-59 -47,-59z"/>
   <path class="fil0" d="M2077 121c10,0 19,1 28,4 9,2 16,5 19,7l6 3 10 -9 2 0 6 60 -3 0c-3,-17 -10,-31 -21,-44 -12,-13 -27,-19 -46,-19l-2 0c-14,0 -24,4 -32,11 -8,7 -12,17 -12,30 0,11 4,21 13,29 9,8 19,15 31,21 12,6 24,11 37,18 12,6 23,15 31,25 9,11 13,24 13,38 0,21 -7,37 -21,50 -14,12 -32,19 -54,19 -10,0 -21,-2 -31,-5 -10,-3 -18,-6 -23,-10l-7 -4 -13 17 -2 0 -5 -71 3 0c5,19 14,36 28,50 13,14 30,21 51,21 16,0 27,-4 36,-11 8,-7 12,-18 12,-31 0,-11 -4,-20 -13,-28 -8,-8 -19,-15 -31,-21 -12,-6 -24,-12 -36,-18 -12,-6 -22,-15 -31,-27 -8,-11 -13,-24 -13,-40 0,-19 7,-35 20,-47 13,-12 29,-18 48,-18z"/>
   <path class="fil0" d="M2281 356c19,0 35,-5 47,-14 12,-9 20,-20 25,-32l3 0c-5,13 -15,25 -28,36 -14,11 -32,16 -55,16 -34,0 -62,-11 -82,-32 -21,-22 -31,-50 -31,-86 0,-35 10,-64 31,-88 21,-24 47,-36 77,-36 27,0 49,8 65,25 16,16 24,40 25,70l-151 0c-1,12 -1,22 -1,30 0,75 25,112 75,112zm-13 -233l0 0c-36,0 -56,29 -61,88l103 0c3,-8 4,-18 4,-29 0,-39 -16,-59 -47,-59z"/>
   <path class="fil0" d="M2569 304c0,20 2,33 5,38 4,6 13,9 29,10l0 2 -107 0 0 -2c15,-1 23,-4 27,-9 3,-5 5,-18 5,-39l0 -101c0,-26 -4,-45 -11,-56 -7,-12 -19,-17 -36,-17 -17,0 -31,6 -42,18 -12,12 -18,28 -18,50l0 107c0,20 2,33 5,38 4,6 13,9 29,10l0 2 -107 0 0 -2c15,-1 24,-4 27,-9 3,-5 5,-18 5,-39l0 -121c0,-17 -2,-27 -7,-33 -4,-5 -14,-8 -29,-8l0 -3c9,0 20,-2 33,-5 13,-3 23,-6 32,-10l12 -4 0 45c17,-30 43,-45 78,-45 23,0 40,6 52,17 12,12 18,28 18,51l0 116z"/>
   <path class="fil0" d="M2642 71l0 57 65 0 0 3 -65 0 0 174c0,30 11,44 32,44 7,0 15,-2 21,-5 7,-3 11,-7 14,-10l4 -5 1 2c-2,2 -4,5 -7,9 -3,3 -10,8 -20,14 -11,6 -22,9 -33,9 -36,0 -54,-18 -54,-55l0 -177 -25 0 0 -2c13,-3 25,-10 38,-21 13,-11 21,-24 26,-37l2 0z"/>
  </g>
 </g>
</svg>
